<?xml version="1.0" standalone="no"?><!DOCTYPE svg PUBLIC "-//W3C//DTD SVG 1.1//EN" "http://www.w3.org/Graphics/SVG/1.1/DTD/svg11.dtd"><svg t="1648608181004" class="icon" viewBox="0 0 1024 1024" version="1.1" xmlns="http://www.w3.org/2000/svg" p-id="2537" xmlns:xlink="http://www.w3.org/1999/xlink" width="200" height="200"><defs><style type="text/css"></style></defs><path d="M512 16C238 16 16 238 16 512s222 496 496 496 496-222 496-496S786 16 512 16z m0 896c-220.6 0-400-179.4-400-400S291.4 112 512 112s400 179.4 400 400-179.4 400-400 400z m0-288c-67.2 0-130.4 29.6-173.6 81.2-17 20.4-14.2 50.6 6.2 67.6s50.6 14.4 67.6-6c49.6-59.4 150-59.4 199.6 0 16.2 19.4 46.4 23.8 67.6 6 20.4-17 23-47.2 6.2-67.6-43.2-51.6-106.4-81.2-173.6-81.2z m-96-144c20.6 0 39.8-13.4 46-34.2 7.6-25.4-6.8-52.2-32.2-59.8l-160-48c-25.6-7.8-52.2 6.8-59.8 32.2-7.6 25.4 6.8 52.2 32.2 59.8l56.4 17c-6.2 9.8-10.6 20.8-10.6 33.2 0 35.4 28.6 64 64 64s64-28.8 64-64.2z m398-109.8c-7.6-25.4-34.2-39.8-59.8-32.2l-160 48c-25.4 7.6-39.8 34.4-32.2 59.8 6.2 20.8 25.4 34.2 46 34.2 0 35.4 28.6 64 64 64s64-28.6 64-64c0-12.4-4.4-23.4-10.6-33.2l56.4-17c25.4-7.4 39.8-34.2 32.2-59.6z" p-id="2538" fill="#841c1c"></path></svg>